Coordinates
version=1
nRows=8
nColumns=33
inDegrees=yes

Units are S.I. units (second, meters, Newtons, ...)
Angles are in degrees.

endheader
time	ground_thorax_rot_x	ground_thorax_rot_y	ground_thorax_rot_z	ground_thorax_tx	ground_thorax_ty	ground_thorax_tz	clav_prot_r	clav_elev_r	scapula_abduction_r	scapula_elevation_r	scapula_upward_rot_r	scapula_winging_r	shoulder_elv_r	plane_of_elev_r	axial_rot_r	elbow_flexion_r	pro_sup_r	wrist_flex_r	wrist_dev_r	clav_prot_l	clav_elev_l	scapula_abduction_l	scapula_elevation_l	scapula_upward_rot_l	scapula_winging_l	shoulder_elv_l	plane_of_elev_l	axial_rot_l	elbow_flexion_l	pro_sup_l	wrist_flex_l	wrist_dev_l
      5.71000000	    -29.48573528	    -26.00616464	     35.22425071	     56.61226707	    763.72552626	    -31.56635631	     25.03841689	    -45.00000000	     35.58903184	    -45.00000000	    -45.00000000	  -4049.43746214	  -1008.80795629	     18.94752733	   -150.59802585	   1801.01423132	   -187.87546564	     11.07748540	     11.74628163	      3.45923425	     26.01875341	    -25.25574952	    -45.00000000	    -45.00000000	  -2813.10354562	  -1348.44999558	     16.28513414	   -179.99999979	    361.15949907	   -171.86381860	     12.07739935	    -12.82628468
      5.72000000	    -29.52507432	    -25.93593903	     35.24615790	     56.63680594	    763.61114193	    -31.44326801	     25.09571357	    -45.00000000	     35.36279773	    -45.00000000	    -45.00000000	  -4049.60729147	  -1008.90017952	     19.27957047	   -151.06598364	   1801.47803019	   -188.07206767	     11.44850977	     12.10878600	      3.29128997	     25.97505932	    -25.28183338	    -45.00000000	    -45.00000000	  -2812.98908776	  -1348.47581711	     16.41890906	   -179.99999979	    361.39925987	   -171.86985498	     12.26488729	    -13.04933135
      5.73000000	    -29.57860488	    -25.85922678	     35.18764965	     56.59255180	    763.48780080	    -31.30852653	     25.09483567	    -45.00000000	     35.46043373	    -45.00000000	    -45.00000000	  -4049.42390246	  -1008.75007612	     18.93268448	   -150.82750346	   1801.14584220	   -188.09483154	     11.00575335	     11.72241859	      3.50735015	     26.03563756	    -25.26145034	    -45.00000000	    -45.00000000	  -2813.07435964	  -1348.43595581	     16.29184829	   -179.99999979	    361.28235000	   -171.97742624	     12.07501677	    -12.83993735
      5.74000000	    -29.60804445	    -25.76316671	     35.16660580	     56.48282174	    763.36589434	    -31.17608739	     25.00709092	    -45.00000000	     35.66905029	    -45.00000000	    -45.00000000	  -4049.74961499	  -1008.87330439	     19.15632825	   -150.80083938	   1801.40867502	   -188.34756995	     11.54721245	     12.14839575	      3.33288717	     26.00355186	    -25.37999858	    -45.00000000	    -45.00000000	  -2812.82530330	  -1348.57034636	     16.42294384	   -179.99999979	    361.41431185	   -172.21583703	     12.32333093	    -13.15926187
      5.75000000	    -29.66504835	    -25.83842668	     35.15517007	     56.28923613	    763.22923448	    -31.03112766	     25.07590864	    -45.00000000	     35.66330950	    -45.00000000	    -45.00000000	  -4049.58061394	  -1008.78426791	     18.94368334	   -150.60713923	   1801.15496107	   -188.53622341	     11.13733174	     11.89993044	      3.42223392	     26.04419222	    -25.30555863	    -45.00000000	    -45.00000000	  -2812.89983945	  -1348.56732291	     16.23861386	   -179.99999979	    361.42545747	   -172.53554004	     12.23198792	    -12.88619314
      5.76000000	    -29.68109822	    -25.80216195	     35.21029173	     56.00969388	    763.08993781	    -30.88255043	     25.01050454	    -45.00000000	     35.63603385	    -45.00000000	    -45.00000000	  -4049.74732158	  -1008.81986395	     19.09311354	   -150.53515164	   1801.43049017	   -188.83922513	     11.32785716	     11.97150159	      3.36639720	     26.06733795	    -25.27615013	    -45.00000000	    -45.00000000	  -2812.77582452	  -1348.62400769	     16.36579661	   -179.99999979	    361.64538041	   -172.95159497	     12.36306023	    -13.04619454
      5.77000000	    -29.73545476	    -25.80254265	     35.26328824	     55.63514610	    762.94142098	    -30.72745870	     25.08417242	    -45.00000000	     35.50654017	    -45.00000000	    -45.00000000	  -4049.66889291	  -1008.69837777	     18.90318376	   -150.37566231	   1801.25715397	   -189.05682941	     10.95034733	     11.86463893	      3.39161662	     26.08958616	    -25.23456498	    -45.00000000	    -45.00000000	  -2812.81147503	  -1348.59958076	     16.21491618	   -179.99999979	    361.57892727	   -173.39459449	     12.31141241	    -12.76086452
      5.78000000	    -29.87447230	    -25.77543268	     35.18698463	     55.17687861	    762.78768674	    -30.57349806	     25.01680492	    -45.00000000	     35.67851689	    -45.00000000	    -45.00000000	  -4050.07873211	  -1008.94235264	     19.20614973	   -150.33398981	   1801.50213519	   -189.47046734	     11.79086391	     12.18278825	      3.29880594	     26.06112915	    -25.33214224	    -45.00000000	    -45.00000000	  -2812.42754283	  -1348.66692192	     16.49669222	   -179.99999979	    361.96318139	   -173.97616543	     12.60499056	    -13.23844011
